<svg width="499" height="100" viewBox="0 0 499 100" fill="none" xmlns="http://www.w3.org/2000/svg">
<g clip-path="url(#clip0_338_20)">
<path d="M331.72 0.0623779H418.637V16.0899H384.158V100.408H366.917V16.0899H331.72V0.0623779Z" fill="#FFFFFB"/>
<path d="M188.774 0.0623779V16.0899H119.104V41.8732H175.133V57.9007H119.104V84.3809H188.774V100.408H101.864V16.0899H101.857V0.0623779H188.774Z" fill="#FFFFFB"/>
<path d="M232.174 0.104248H209.613L290.423 100.45H313.05L272.64 50.3118L312.986 0.180806L290.423 0.21564L261.344 36.2964L232.174 0.104248Z" fill="#FFFFFB"/>
<path d="M255.326 71.7819L244.027 57.7473L209.548 100.527H232.174L255.326 71.7819Z" fill="#FFFFFB"/>
<path fill-rule="evenodd" clip-rule="evenodd" d="M102.469 100.408L21.5496 0.0205078H0V100.367H17.2397V21.4694L80.811 100.408H102.469Z" fill="#FFFFFB"/>
<path d="M422.512 99.7955C421.25 99.7955 420.176 99.3586 419.277 98.4846C418.377 97.6107 417.933 96.5526 417.944 95.2992C417.933 94.0802 418.377 93.0337 419.277 92.1597C420.176 91.2858 421.25 90.8488 422.512 90.8488C423.727 90.8488 424.79 91.2858 425.689 92.1597C426.601 93.0337 427.055 94.0802 427.068 95.2992C427.055 96.1271 426.845 96.886 426.425 97.5645C425.993 98.2546 425.444 98.7951 424.754 99.1861C424.077 99.5886 423.329 99.7955 422.512 99.7955Z" fill="#FFFFFB"/>
<path d="M451.937 57.5226H459.577V86.9273C459.565 89.6298 458.98 91.9412 457.836 93.8847C456.68 95.8281 455.079 97.3114 453.024 98.358C450.98 99.3929 448.585 99.922 445.863 99.922C443.374 99.922 441.144 99.4735 439.158 98.5995C437.172 97.7256 435.595 96.4146 434.439 94.6896C433.27 92.9646 432.698 90.8142 432.698 88.2383H440.35C440.361 89.3653 440.618 90.3426 441.108 91.1591C441.599 91.9756 442.276 92.5965 443.141 93.0336C444.016 93.4706 445.022 93.6891 446.154 93.6891C447.381 93.6891 448.433 93.4361 449.285 92.9186C450.137 92.4126 450.792 91.6536 451.248 90.6416C451.691 89.6413 451.926 88.3993 451.937 86.9273V57.5226Z" fill="#FFFFFB"/>
<path d="M491.01 69.0223C490.823 67.2399 490.005 65.8484 488.581 64.8595C487.143 63.859 485.286 63.3645 483.008 63.3645C481.408 63.3645 480.03 63.6061 478.885 64.0775C477.741 64.5605 476.853 65.2044 476.245 66.0209C475.638 66.8374 475.334 67.7689 475.31 68.8154C475.31 69.6894 475.52 70.4483 475.929 71.0808C476.339 71.7248 476.887 72.2653 477.6 72.7023C478.3 73.1507 479.083 73.5187 479.937 73.8177C480.8 74.1167 481.665 74.3697 482.529 74.5767L486.512 75.5542C488.113 75.9221 489.667 76.4167 491.15 77.0491C492.633 77.6702 493.977 78.4636 495.156 79.418C496.337 80.3726 497.271 81.5225 497.96 82.868C498.649 84.2134 499 85.7888 499 87.6058C499 90.0552 498.369 92.2057 497.095 94.0686C495.822 95.92 493.988 97.369 491.582 98.4156C489.187 99.4506 486.291 99.9795 482.88 99.9795C479.586 99.9795 476.712 99.4736 474.294 98.4616C471.865 97.4611 469.972 95.9891 468.605 94.0571C467.239 92.1252 466.503 89.7677 466.398 86.9963H473.968C474.073 88.4452 474.54 89.6528 475.334 90.6303C476.14 91.5962 477.191 92.3092 478.476 92.7922C479.773 93.2636 481.221 93.5052 482.822 93.5052C484.492 93.5052 485.964 93.2521 487.237 92.7576C488.498 92.2631 489.491 91.5733 490.204 90.6763C490.929 89.7907 491.291 88.7443 491.302 87.5484C491.291 86.4559 490.963 85.5473 490.332 84.8343C489.69 84.1214 488.802 83.5234 487.669 83.0405C486.525 82.5575 485.193 82.1205 483.674 81.741L478.839 80.522C475.346 79.6366 472.577 78.2912 470.556 76.4857C468.524 74.6802 467.519 72.2883 467.519 69.2869C467.519 66.826 468.196 64.6641 469.564 62.8126C470.918 60.9612 472.776 59.5237 475.124 58.5002C477.483 57.4653 480.147 56.9592 483.113 56.9592C486.127 56.9592 488.767 57.4653 491.045 58.5002C493.322 59.5237 495.111 60.9497 496.406 62.7665C497.703 64.5835 498.381 66.6649 498.416 69.0223H491.01Z" fill="#FFFFFB"/>
</g>
<defs>
<clipPath id="clip0_338_20">
<rect width="499" height="100" fill="white"/>
</clipPath>
</defs>
</svg>
